<svg width="198" height="34" viewBox="0 0 198 34" fill="none" xmlns="http://www.w3.org/2000/svg">
<g clip-path="url(#clip0_0_3468)">
<path d="M24.5992 5.26916L21.1932 8.6381C19.038 6.358 16.5251 5.21758 13.6544 5.21685C11.1528 5.21685 9.05792 6.04638 7.36982 7.70543C5.68171 9.36448 4.8373 11.3798 4.83657 13.7514C4.83657 16.2044 5.71295 18.283 7.4657 19.9871C9.21845 21.6911 11.3802 22.5435 13.9508 22.5443C15.6215 22.5443 17.0307 22.1931 18.1783 21.4907C19.326 20.7882 20.2514 19.6881 20.9546 18.1904H13.5956V13.6468H26.3784L26.4133 14.719C26.4125 16.9421 25.8157 19.1243 24.6852 21.0385C23.5332 23.031 22.042 24.5513 20.2115 25.5994C18.381 26.6476 16.2331 27.1717 13.7678 27.1717C11.131 27.1717 8.77862 26.5986 6.71062 25.4523C4.64947 24.3117 2.95049 22.6146 1.80756 20.5547C0.611971 18.4678 -0.0108569 16.102 0.00215283 13.697C0.00215283 10.3346 1.11351 7.40943 3.33623 4.92158C5.97299 1.96231 9.40477 0.482315 13.6316 0.481588C15.7607 0.465497 17.8708 0.882923 19.8334 1.70844C21.4554 2.40068 23.044 3.58759 24.5992 5.26916Z" fill="#5E5D3E"/>
<path d="M43.7462 7.73922H48.4618V26.5343H43.7462V24.548C42.8251 25.4197 41.9019 26.0502 40.9765 26.4395C40.0215 26.8308 38.998 27.0275 37.966 27.018C35.5385 27.018 33.4389 26.0767 31.6672 24.1939C29.8956 22.3111 29.0094 19.9704 29.0087 17.1716C29.0087 14.2661 29.8654 11.8879 31.579 10.0371C33.2925 8.18631 35.3747 7.25908 37.8255 7.25545C38.9165 7.24826 39.9973 7.46598 41.0005 7.89503C42.0314 8.34867 42.964 8.99892 43.7462 9.8094V7.73922ZM38.7886 11.6094C37.3308 11.6094 36.1199 12.1247 35.156 13.1555C34.1921 14.1862 33.7098 15.5075 33.7091 17.1193C33.7091 18.7435 34.1997 20.0797 35.1811 21.1278C35.6378 21.6335 36.1976 22.0353 36.8227 22.3063C37.4478 22.5773 38.1237 22.7113 38.805 22.699C40.2861 22.699 41.5144 22.1836 42.4899 21.1529C43.4654 20.1222 43.9532 18.7722 43.9532 17.103C43.9532 15.4672 43.4654 14.1426 42.4899 13.1293C41.5144 12.116 40.2806 11.6094 38.7886 11.6094Z" fill="#5E5D3E"/>
<path d="M64.0449 10.3651L61.1259 13.2851C59.9398 12.1098 58.8629 11.5222 57.8954 11.5222C57.3651 11.5222 56.9503 11.6348 56.6511 11.8599C56.5135 11.952 56.4006 12.0765 56.3223 12.2224C56.244 12.3683 56.2028 12.5312 56.2022 12.6967C56.205 12.958 56.307 13.2085 56.4876 13.3973C56.6772 13.6102 57.1465 13.9007 57.8954 14.269L59.6223 15.133C61.4383 16.0323 62.6877 16.9479 63.3704 17.8798C64.0532 18.8118 64.3932 19.9057 64.3903 21.1616C64.3903 22.8323 63.7769 24.2258 62.55 25.3423C61.3231 26.4587 59.6793 27.0173 57.6186 27.018C54.8773 27.018 52.689 25.947 51.054 23.8049L53.9566 20.6451C54.5008 21.2831 55.1597 21.8134 55.8993 22.2087C56.6424 22.6053 57.3019 22.8039 57.8779 22.8047C58.5004 22.8047 59.0013 22.6547 59.3804 22.3547C59.7596 22.0547 59.9499 21.7093 59.9514 21.3185C59.9514 20.5921 59.266 19.8839 57.8954 19.1938L56.3057 18.3995C53.2658 16.8676 51.7455 14.95 51.7448 12.6466C51.7448 11.1604 52.3179 9.88928 53.4641 8.83312C54.6103 7.77696 56.0758 7.24998 57.8605 7.25216C59.0635 7.24644 60.2507 7.52515 61.3255 8.06555C62.4003 8.60596 63.3321 9.39277 64.0449 10.3618V10.3651Z" fill="#5E5D3E"/>
<path d="M68.6745 0.812805H73.3901V7.7392H76.187V11.7989H73.3879V26.5343H68.6723V11.7989H66.2534V7.7392H68.6723L68.6745 0.812805Z" fill="#5E5D3E"/>
<path d="M78.5252 7.73919H82.5686V10.1057C83.0044 9.17306 83.5855 8.46484 84.3119 7.98107C85.0151 7.5041 85.8462 7.25113 86.6959 7.25542C87.3635 7.26959 88.0191 7.435 88.6136 7.73919L87.1448 11.7989C86.592 11.5222 86.1373 11.3842 85.7807 11.3849C85.0543 11.3849 84.4409 11.8338 83.9404 12.7316C83.4399 13.6294 83.1893 15.3916 83.1886 18.0182L83.206 18.9334V26.5343H78.5209L78.5252 7.73919Z" fill="#5E5D3E"/>
<path d="M98.6234 7.25544C100.379 7.25049 102.104 7.70944 103.625 8.58581C105.137 9.43757 106.395 10.6775 107.268 12.1776C108.141 13.6777 108.598 15.3836 108.592 17.1193C108.599 18.8657 108.143 20.5826 107.27 22.0954C106.42 23.6063 105.175 24.8573 103.668 25.7138C102.138 26.5873 100.403 27.0385 98.6408 27.0213C95.946 27.0213 93.6455 26.0625 91.7395 24.1448C89.8335 22.2272 88.8805 19.8981 88.8805 17.1574C88.8805 14.2214 89.9574 11.7742 92.1111 9.81593C93.9997 8.10966 96.1704 7.25617 98.6234 7.25544ZM98.7019 11.6954C97.2368 11.6954 96.0168 12.2039 95.042 13.2208C94.0672 14.2378 93.5798 15.542 93.5798 17.1335C93.5798 18.7686 94.0614 20.0931 95.0246 21.1071C95.9878 22.1212 97.2077 22.6296 98.6844 22.6325C100.16 22.6325 101.389 22.1201 102.37 21.0951C103.352 20.0702 103.842 18.7515 103.84 17.1389C103.84 15.5264 103.359 14.2163 102.396 13.2088C101.432 12.2014 100.201 11.6969 98.7019 11.6954Z" fill="#5E5D3E"/>
<path d="M142.215 7.73921H143.891C143.901 5.27461 143.941 3.81785 144.01 3.36895C144.138 2.33314 144.573 1.51269 145.318 0.907613C146.062 0.302539 147.114 0 148.471 0C149.45 0 150.555 0.224815 151.788 0.674443V4.27002C151.108 4.07535 150.549 3.97765 150.112 3.97693C149.559 3.97693 149.156 4.09206 148.903 4.32233C148.719 4.49593 148.627 4.85294 148.627 5.39337L148.61 7.74248H151.598V11.7336H148.61V26.5343H143.894V11.7303H142.215V7.73921Z" fill="#5E5D3E"/>
<path d="M153.72 7.73922H155.399C155.41 5.27461 155.451 3.81786 155.52 3.36896C155.646 2.33314 156.082 1.51269 156.827 0.907618C157.572 0.302544 158.622 0.00109797 159.975 0.00327711C160.953 0.00327711 162.059 0.228092 163.292 0.677721V4.2733C162.612 4.07863 162.053 3.98093 161.616 3.9802C161.063 3.9802 160.659 4.0957 160.406 4.3256C160.223 4.4992 160.13 4.85622 160.13 5.39664L160.113 7.74575H163.102V11.7368H160.113V26.5343H155.399V11.7303H153.723L153.72 7.73922Z" fill="#5E5D3E"/>
<path d="M184.464 18.502H169.314C169.531 19.8378 170.116 20.9001 171.067 21.689C172.018 22.4778 173.23 22.8722 174.704 22.8722C175.546 22.884 176.383 22.726 177.164 22.4078C177.944 22.0896 178.653 21.6176 179.247 21.02L183.22 22.8864C182.229 24.2912 181.043 25.3307 179.661 26.0047C178.28 26.6788 176.638 27.0155 174.737 27.0148C171.791 27.0148 169.389 26.085 167.534 24.2255C165.679 22.3659 164.752 20.0364 164.754 17.237C164.754 14.3692 165.678 11.9882 167.526 10.0938C169.373 8.19936 171.691 7.25217 174.479 7.25217C177.438 7.25217 179.845 8.19936 181.7 10.0938C183.554 11.9882 184.481 14.4902 184.48 17.5998L184.464 18.502ZM179.747 14.7876C179.444 13.7496 178.793 12.847 177.905 12.2304C176.987 11.5767 175.923 11.2498 174.712 11.2498C173.397 11.2498 172.243 11.6184 171.251 12.3557C170.629 12.8155 170.052 13.6272 169.521 14.7909L179.747 14.7876Z" fill="#5E5D3E"/>
<path d="M187.176 7.73919H191.218V10.1057C191.654 9.17306 192.235 8.46484 192.962 7.98107C193.665 7.5041 194.496 7.25113 195.346 7.25542C196.013 7.26948 196.669 7.43489 197.263 7.73919L195.794 11.7989C195.242 11.5222 194.787 11.3842 194.43 11.3849C193.704 11.3849 193.091 11.8338 192.591 12.7316C192.091 13.6294 191.841 15.3916 191.839 18.0182L191.857 18.9334V26.5343H187.172L187.176 7.73919Z" fill="#5E5D3E"/>
<path opacity="0.8" d="M140.551 12.8537H130.854C130.494 12.8537 130.137 12.7827 129.804 12.6448C129.471 12.5069 129.169 12.3048 128.914 12.05C128.66 11.7953 128.458 11.4928 128.32 11.1599C128.182 10.8271 128.111 10.4704 128.112 10.1101V0.470703L140.551 12.8537Z" fill="#5E5D3E"/>
<g opacity="0.8">
<path d="M122.253 9.38227H126.274C126.366 9.38594 126.458 9.37103 126.544 9.33844C126.63 9.30584 126.708 9.25623 126.774 9.19258C126.841 9.12894 126.893 9.05256 126.929 8.96805C126.965 8.88353 126.984 8.79261 126.984 8.70075C126.984 8.60888 126.965 8.51796 126.929 8.43344C126.893 8.34893 126.841 8.27255 126.774 8.20891C126.708 8.14526 126.63 8.09565 126.544 8.06305C126.458 8.03046 126.366 8.01555 126.274 8.01922H122.253C122.161 8.01555 122.07 8.03046 121.984 8.06305C121.898 8.09565 121.819 8.14526 121.753 8.20891C121.687 8.27255 121.634 8.34893 121.598 8.43344C121.562 8.51796 121.544 8.60888 121.544 8.70075C121.544 8.79261 121.562 8.88353 121.598 8.96805C121.634 9.05256 121.687 9.12894 121.753 9.19258C121.819 9.25623 121.898 9.30584 121.984 9.33844C122.07 9.37103 122.161 9.38594 122.253 9.38227Z" fill="#5E5D3E"/>
<path d="M122.253 12.8428H126.274C126.366 12.8464 126.458 12.8315 126.544 12.7989C126.63 12.7663 126.708 12.7167 126.774 12.6531C126.841 12.5894 126.893 12.513 126.929 12.4285C126.965 12.344 126.984 12.2531 126.984 12.1612C126.984 12.0694 126.965 11.9784 126.929 11.8939C126.893 11.8094 126.841 11.733 126.774 11.6694C126.708 11.6057 126.63 11.5561 126.544 11.5235C126.458 11.4909 126.366 11.476 126.274 11.4797H122.253C122.161 11.476 122.07 11.4909 121.984 11.5235C121.898 11.5561 121.819 11.6057 121.753 11.6694C121.687 11.733 121.634 11.8094 121.598 11.8939C121.562 11.9784 121.544 12.0694 121.544 12.1612C121.544 12.2531 121.562 12.344 121.598 12.4285C121.634 12.513 121.687 12.5894 121.753 12.6531C121.819 12.7167 121.898 12.7663 121.984 12.7989C122.07 12.8315 122.161 12.8464 122.253 12.8428Z" fill="#5E5D3E"/>
<path d="M121.571 15.6222C121.571 15.8031 121.643 15.9766 121.771 16.1045C121.898 16.2324 122.072 16.3043 122.253 16.3043H131.732C131.913 16.3043 132.086 16.2324 132.214 16.1045C132.342 15.9766 132.414 15.8031 132.414 15.6222C132.414 15.4413 132.342 15.2678 132.214 15.1399C132.086 15.012 131.913 14.9402 131.732 14.9402H122.253C122.072 14.9402 121.898 15.012 121.771 15.1399C121.643 15.2678 121.571 15.4413 121.571 15.6222Z" fill="#5E5D3E"/>
<path d="M131.735 18.4006H122.256C122.075 18.4006 121.902 18.4725 121.774 18.6004C121.646 18.7283 121.574 18.9018 121.574 19.0827C121.574 19.2636 121.646 19.4371 121.774 19.565C121.902 19.6929 122.075 19.7648 122.256 19.7648H131.735C131.916 19.7648 132.09 19.6929 132.218 19.565C132.346 19.4371 132.417 19.2636 132.417 19.0827C132.417 18.9018 132.346 18.7283 132.218 18.6004C132.09 18.4725 131.916 18.4006 131.735 18.4006Z" fill="#5E5D3E"/>
</g>
<path d="M140.55 12.8526H136.912C136.942 13.1653 136.958 13.4802 136.958 13.7994C136.958 15.724 136.387 17.6054 135.318 19.2056C134.248 20.8059 132.729 22.0531 130.951 22.7896C129.173 23.5261 127.216 23.7188 125.328 23.3434C123.441 22.9679 121.707 22.0411 120.346 20.6802C118.985 19.3193 118.058 17.5854 117.683 15.6978C117.307 13.8102 117.5 11.8536 118.237 10.0755C118.973 8.29744 120.22 6.77767 121.821 5.70842C123.421 4.63917 125.302 4.06846 127.227 4.06846C127.524 4.06846 127.819 4.08153 128.11 4.10768V0.470698C127.818 0.451086 127.523 0.441284 127.227 0.441284C124.756 0.441863 122.334 1.12749 120.23 2.42197C118.125 3.71646 116.421 5.5691 115.307 7.77398C114.192 9.97887 113.71 12.4496 113.916 14.9117C114.121 17.3738 115.005 19.7307 116.469 21.7206L116.634 21.9472L113.139 25.4992L113.097 25.4589C113.002 25.3641 112.874 25.3108 112.739 25.3108C112.605 25.3108 112.476 25.3641 112.381 25.4589L107.271 30.6376C107.177 30.7326 107.124 30.861 107.124 30.995C107.124 31.1289 107.177 31.2574 107.271 31.3524L109.811 33.8584C109.906 33.9531 110.034 34.0063 110.168 34.0063C110.302 34.0063 110.431 33.9531 110.526 33.8584L115.636 28.6796C115.731 28.5848 115.784 28.4563 115.784 28.3223C115.784 28.1882 115.731 28.0597 115.636 27.9649L115.593 27.9235L119.08 24.3791L119.266 24.5371C121.255 26.0113 123.613 26.9041 126.079 27.1159C128.545 27.3277 131.022 26.8501 133.232 25.7365C135.443 24.6229 137.3 22.917 138.598 20.8092C139.896 18.7014 140.582 16.2746 140.581 13.7994C140.581 13.4823 140.573 13.1664 140.55 12.8526Z" fill="#5E5D3E"/>
</g>
<defs>
<clipPath id="clip0_0_3468">
<rect width="197.264" height="34" fill="white"/>
</clipPath>
</defs>
</svg>
